# xmcd
#
# Track frame offsets:
#	150
#	14835
#	33090
#	50945
#	70417
#	86267
#	104102
#	121135
#	138112
#	159202
#	173887
#	192142
#	209995
#	229467
#	245317
#	263152
#	280185
#	297162
#	318250
#
# Disc length: 4525 seconds
#
# Revision: 1
# Processed by: cddbd v1.5.1PL0 Copyright (c) Steve Scherf et al.
# Submitted via: audiograbber 1.82.02
#
DISCID=1b11ab13
DTITLE=Various Artist - Top Hits Monthly 0310 Country
DYEAR=1900
DGENRE=Karaoke
TTITLE0=Alan Jackson and David Allen Coe W - Vocals - It's five o'clock somewhere
TTITLE0=W - Vocals
TTITLE1=Martina McBride W - Vocals - This one's for the girls W - Vocals
TTITLE2=Gary Allan W - Vocals - Tough little boys W - Vocals
TTITLE3=Rodney Atkins W - Vocals - Honesty ( Write me a list ) W - Vocals
TTITLE4=Chris Cagle W - Vocals - Chicks dig it W - Vocals
TTITLE5=Rascal Flatts W - Vocals - I melt W - Vocals
TTITLE6=Keith Urban W - Vocals - Who wouldn't want to be me W - Vocals
TTITLE7=Ashley Gearing W - Vocals - Can you hear me when I talk to you W - Voca
TTITLE7=ls
TTITLE8=Sherrie Austin W - Vocals - Streets of heaven W - Vocals
TTITLE9=Alan Jackson and David Allen Coe - It's five o'clock somewhere
TTITLE10=Martina McBride - This one's for the girls
TTITLE11=Gary Allan - Tough little boys
TTITLE12=Rodney Atkins - Honesty ( Write me a list )
TTITLE13=Chris Cagle - Chicks dig it
TTITLE14=Rascal Flatts - I melt
TTITLE15=Keith Urban - Who wouldn't want to be me
TTITLE16=Ashley Gearing - Can you hear me when I talk to you
TTITLE17=Sherrie Austin - Streets of heaven
TTITLE18=Blake Shelton - Playboys of the southwestern world
EXTD=
EXTT0=
EXTT1=
EXTT2=
EXTT3=
EXTT4=
EXTT5=
EXTT6=
EXTT7=
EXTT8=
EXTT9=
EXTT10=
EXTT11=
EXTT12=
EXTT13=
EXTT14=
EXTT15=
EXTT16=
EXTT17=
EXTT18=
PLAYORDER=
